<?xml version="1.0" encoding="UTF-8" standalone="no"?>
<!-- Created with Inkscape (http://www.inkscape.org/) -->

<svg
   xmlns:dc="http://purl.org/dc/elements/1.1/"
   xmlns:cc="http://creativecommons.org/ns#"
   xmlns:rdf="http://www.w3.org/1999/02/22-rdf-syntax-ns#"
   xmlns:svg="http://www.w3.org/2000/svg"
   xmlns="http://www.w3.org/2000/svg"
   xmlns:sodipodi="http://sodipodi.sourceforge.net/DTD/sodipodi-0.dtd"
   xmlns:inkscape="http://www.inkscape.org/namespaces/inkscape"
   width="281.58243"
   height="265.60468"
   id="svg5490"
   version="1.1"
   inkscape:version="0.47pre4 r22446"
   sodipodi:docname="New document 24">
  <title
     id="title5509">Ten Side Dice</title>
  <defs
     id="defs5492" />
  <sodipodi:namedview
     id="base"
     pagecolor="#ffffff"
     bordercolor="#666666"
     borderopacity="1.0"
     inkscape:pageopacity="0.0"
     inkscape:pageshadow="2"
     inkscape:zoom="0.35"
     inkscape:cx="-358.4945"
     inkscape:cy="175.65948"
     inkscape:document-units="px"
     inkscape:current-layer="layer1"
     showgrid="false"
     inkscape:window-width="1280"
     inkscape:window-height="950"
     inkscape:window-x="0"
     inkscape:window-y="25"
     inkscape:window-maximized="1" />
  <metadata
     id="metadata5495">
    <rdf:RDF>
      <cc:Work
         rdf:about="">
        <dc:format>image/svg+xml</dc:format>
        <dc:type
           rdf:resource="http://purl.org/dc/dcmitype/StillImage" />
        <cc:license
           rdf:resource="http://creativecommons.org/licenses/publicdomain/" />
        <dc:title>Ten Side Dice</dc:title>
        <dc:creator>
          <cc:Agent>
            <dc:title>Brian Burger/Wirelizard Design</dc:title>
          </cc:Agent>
        </dc:creator>
        <dc:description>Ten-sided dice, as used in role-playing games (RPGs) and wargaming.</dc:description>
      </cc:Work>
      <cc:License
         rdf:about="http://creativecommons.org/licenses/publicdomain/">
        <cc:permits
           rdf:resource="http://creativecommons.org/ns#Reproduction" />
        <cc:permits
           rdf:resource="http://creativecommons.org/ns#Distribution" />
        <cc:permits
           rdf:resource="http://creativecommons.org/ns#DerivativeWorks" />
      </cc:License>
    </rdf:RDF>
  </metadata>
  <g
     inkscape:label="Layer 1"
     inkscape:groupmode="layer"
     id="layer1"
     transform="translate(-227.78021,-442.41699)">
    <path
       style="fill:#d00000;fill-opacity:1;stroke:none"
       d="m 322.99998,442.41857 c -0.42177,0.01 -0.85324,0.033 -1.25,0.125 -4.24577,0.6737 -6.39943,5.0234 -9.5,9.125 -3.5058,47.9114 -8.45761,91.7803 -11.96875,139.75 14.69327,-1.1002 34.88652,-0.8747 55.625,-1.1563 22.56171,-0.3061 44.54839,-1.8501 55.3125,-5.75 22.18397,-8.0372 39.29919,-28.3878 53.59375,-58.625 -43.94058,-26.7523 -91.23952,-58.5489 -131.8125,-80.25 -3.52612,-1.4701 -7.04759,-3.2814 -10,-3.2187 z m -19.125,19.5937 c -26.27788,49.685 -49.52089,90.3438 -76.03125,140.9063 -0.51466,13.5852 2.16567,21.404 5.59375,26.375 3.43608,4.9826 6.54996,6.2712 11.15625,5.9687 6.64358,-2.2026 14.99257,-8.1193 23.625,-15.5937 3.27317,-2.9161 24.23597,-21.1035 26.03125,-25.125 3.28946,-44.9559 6.31176,-87.314 9.625,-132.5313 z m 75.03125,2.375 c 31.98502,19.8454 62.56332,39.8036 90.40625,56.2813 8.32178,4.9249 24.10124,10.7655 36.03125,14.3125 -11.35474,-11.4986 -24.31431,-21.3817 -38.75,-28.5 l -87.6875,-42.0938 z m -20.375,18.5313 c 3.22945,-0.084 6.43141,0.8236 9.59375,2.6875 6.33572,3.6829 12.21864,11.0834 17.65625,22.2188 5.07793,10.3987 6.99131,20.0226 5.75,28.875 -1.23032,8.807 -5.45221,15.4338 -12.65625,19.875 -1.93468,1.1927 -3.98616,2.1865 -6.1875,2.9687 l -7.15625,1.8125 -3.96875,-8.125 c 2.45253,-0.1322 4.8036,-0.5231 7.0625,-1.1875 2.25888,-0.6644 4.34078,-1.6042 6.25,-2.7813 5.09119,-3.1385 8.0047,-7.4984 8.75,-13.0937 0.75632,-5.6403 -0.62784,-12.5992 -4.1875,-20.9063 -0.23936,3.4439 -1.17739,6.5295 -2.78125,9.2813 -1.60389,2.7518 -3.78201,4.9614 -6.53125,6.6563 -5.70217,3.5153 -11.19201,4.3273 -16.46875,2.4062 -5.26566,-1.9662 -9.58822,-6.4208 -12.96875,-13.3438 -3.30857,-6.7753 -4.24371,-13.2708 -2.78125,-19.5 1.46251,-6.229 5.0907,-11.1094 10.84375,-14.6562 3.29656,-2.0322 6.5518,-3.1033 9.78125,-3.1875 z m -0.71875,8.4063 c -1.86453,0.0693 -3.7317,0.6765 -5.625,1.8437 -3.46201,2.1344 -5.53446,5.2255 -6.21875,9.25 -0.67319,3.9795 0.15276,8.3197 2.46875,13.0625 2.33041,4.7723 5.18241,7.9065 8.53125,9.4062 l 10.25,-0.9687 c 3.46201,-2.1343 5.51428,-5.1767 6.1875,-9.1563 0.69866,-3.9948 -0.10712,-8.3838 -2.4375,-13.1562 -2.31602,-4.7427 -5.15695,-7.8594 -8.53125,-9.3438 -1.26121,-0.5733 -2.5374,-0.8793 -3.8125,-0.9374 -0.26565,-0.0122 -0.54614,-0.01 -0.8125,0 z m -68.28125,25.0312 c 0.6652,-0.037 1.208,0.1563 1.625,0.5625 1.34311,1.2694 1.25359,4.5971 -0.3125,10 -1.09105,3.764 -2.64062,7.4522 -4.59375,11.0625 -1.94441,3.5802 -4.1583,6.8096 -6.65625,9.6562 2.17078,-1.1013 3.52844,-0.74 4.03125,1.0938 0.51959,1.8197 0.14195,4.9104 -1.125,9.2812 -1.94449,6.7084 -4.74889,12.9676 -8.375,18.7813 -3.62617,5.8138 -7.78141,10.6812 -12.5,14.625 -1.58411,1.324 -3.13821,2.4182 -4.65625,3.25 -1.51,0.8481 -3.00797,1.4426 -4.46875,1.8125 l 2.59375,-8.875 c 0.98446,0.3043 2.191,0.1496 3.65625,-0.5 1.46525,-0.6497 3.13186,-1.7459 4.96875,-3.2812 3.2019,-2.6761 5.95299,-5.8603 8.28125,-9.5313 2.34508,-3.685 4.14804,-7.6907 5.40625,-12.0313 1.16137,-4.0065 1.29114,-6.4699 0.375,-7.4062 -0.89053,-0.9807 -2.71942,-0.3239 -5.5,2 l -4.40625,3.6875 2.1875,-7.5625 4.59375,-3.8438 c 2.51094,-2.0986 4.71205,-4.5962 6.5625,-7.5 1.8592,-2.9338 3.26453,-6.1003 4.25,-9.5 1.01178,-3.4906 1.09514,-5.5845 0.25,-6.2812 -0.81956,-0.7409 -2.50101,-0.0471 -5.0625,2.0938 -1.39876,1.1691 -2.9907,2.6782 -4.75,4.5624 -1.75935,1.8848 -3.74453,4.2097 -6,6.9688 l 2.375,-8.1875 c 2.21952,-2.5911 4.23648,-4.8246 6.0625,-6.7187 1.84282,-1.9084 3.50013,-3.4964 5,-4.75 2.66473,-2.2272 4.72407,-3.3871 6.1875,-3.4688 z m 182.28125,13.0625 c -14.13101,29.8676 -32.13238,52.6031 -55.1875,62.0625 l 3.5,113.7812 c 6.02642,-3.3647 7.16496,-5.3797 9.8125,-11.75 l 78.625,-144.2812 c 1.09671,-2.8101 1.19765,-4.6295 -0.53125,-5.8125 -12.96519,-3.6278 -24.1037,-8.0586 -36.21875,-14 z m -59.34375,19.9063 2.75,5.5937 -45.59375,22.4063 -2.78125,-5.5938 45.625,-22.4062 z m 66.875,21 -3.125,8.1874 c -3.4724,4.6404 -8.17558,10.8862 -14.09375,18.7188 -5.94788,7.8718 -9.73913,12.8991 -11.34375,15.125 -3.03557,4.1911 -5.34874,7.6329 -6.9375,10.3125 -1.61844,2.7186 -2.87825,5.2486 -3.78125,7.5937 -1.47189,3.8227 -1.93973,6.6567 -1.40625,8.4688 0.51617,1.819 1.9503,2.234 4.28125,1.2812 1.6526,-0.6756 3.59168,-1.905 5.84375,-3.7187 2.23474,-1.8067 4.83384,-4.2133 7.75,-7.2187 l -3.8125,9.8124 c -2.7283,2.4414 -5.15932,4.4432 -7.3125,6 -2.15311,1.5569 -4.0004,2.6555 -5.53125,3.2813 -4.03569,1.6495 -6.53422,1.0888 -7.5,-1.6563 -0.96569,-2.7452 -0.24333,-7.2368 2.15625,-13.4687 1.13803,-2.9554 2.52081,-5.8661 4.15625,-8.7813 1.60577,-2.8759 3.90671,-6.4427 6.875,-10.6874 0.79364,-1.1095 3.19971,-4.3634 7.25,-9.7813 l 17.0625,-22.6875 -18.40625,7.5 3.15625,-8.1875 24.71875,-10.0937 z m -68.9375,23.4062 c -12.71886,3.815 -33.1634,4.6175 -54.4375,4.9062 -18.05458,0.1711 -42.77304,-1.2499 -57.34375,1.375 -8.50824,8.1979 -17.66783,16.9631 -26.625,24.7188 -7.9754,6.68 -16.14318,13.6182 -26.21875,16.8125 -1.23924,0.1 -1.44055,-0.04 -2.6875,-0.1875 3.73504,3.3623 7.66251,5.3993 11.90625,7.8125 l 143.4375,57.4375 c 0.75336,0.1466 8.69884,3.0903 15.1875,0.0312 l -3.21875,-112.9062 z m -68.90625,31.7188 c 0.64086,-0.0214 1.27589,-0.0193 1.90625,0 0.72041,0.0219 1.41804,0.082 2.125,0.1562 5.65564,0.5951 10.15366,2.7447 13.5,6.4688 2.39288,2.663 3.37575,5.3716 2.90625,8.125 -0.44031,2.7409 -2.26588,5.2409 -5.4375,7.5 4.90226,-1.0961 9.46959,-1.091 13.6875,-0.0313 4.24707,1.0469 7.70165,3.0561 10.375,6.0313 4.05668,4.5144 5.21813,8.7876 3.5,12.8437 -1.68901,4.0439 -6.12552,7.6052 -13.34375,10.6563 -7.21828,3.0507 -13.85094,4.1768 -19.90625,3.4062 -6.02611,-0.7828 -11.06827,-3.4229 -15.125,-7.9375 -2.6733,-2.9751 -3.73307,-5.99 -3.1875,-9.0625 0.5456,-3.0725 2.61895,-5.8643 6.25,-8.375 l 0,-0.0312 c -4.39731,0.94 -8.48409,0.95 -12.28125,0 -3.7679,-0.9623 -6.85708,-2.7744 -9.25,-5.4376 -3.34631,-3.7238 -4.14216,-7.455 -2.375,-11.1874 1.79643,-3.7447 5.94985,-6.9767 12.4375,-9.7188 4.9895,-2.1089 9.73272,-3.2565 14.21875,-3.4062 z m -1.5625,6.5 c -2.59585,0.048 -5.33818,0.7019 -8.1875,1.9062 -3.8283,1.6182 -6.17555,3.5274 -7.09375,5.7812 -0.88895,2.2419 -0.26231,4.5868 1.90625,7 2.16857,2.4133 4.8995,3.8497 8.21875,4.3126 3.34848,0.4507 6.95295,-0.1321 10.78125,-1.75 3.79909,-1.6059 6.1443,-3.5273 7.0625,-5.7813 0.9474,-2.2663 0.35606,-4.6177 -1.8125,-7.0313 -2.16857,-2.4131 -4.96606,-3.8429 -8.34375,-4.2812 -0.83712,-0.1127 -1.66597,-0.1722 -2.53125,-0.1562 z m 19.28125,20.1874 c -2.95218,0 -6.00943,0.6881 -9.1875,2.0313 -4.20822,1.7787 -6.82641,3.9668 -7.8125,6.5937 -0.95686,2.6151 -0.18001,5.3165 2.34375,8.125 2.52377,2.8089 5.72667,4.536 9.5625,5.125 3.86504,0.577 7.88551,-0.0341 12.09375,-1.8124 4.20818,-1.7789 6.82638,-3.998 7.8125,-6.625 0.96736,-2.6479 0.19254,-5.3684 -2.3125,-8.1563 -2.52379,-2.8086 -5.72872,-4.4857 -9.59375,-5.0625 -0.95896,-0.1472 -1.92219,-0.2201 -2.90625,-0.2188 z"
       id="rect4823" />
  </g>
</svg>
